# xmcd CD database file
#
# Track frame offsets:
#	150
#	17025
#	48243
#	58106
#	77518
#	93343
#
# Disc length: 1481 seconds
#
# Revision: 0
# Processed by: cddbd v1.5.1PL2 Copyright (c) Steve Scherf et al.
# Submitted via: CDex 1.51
#
DISCID=3e05c706
DTITLE=藤みさき＋ - MISAKI＋ Vol.2
DYEAR=2006
DGENRE=Vocal
TTITLE0=OPENING トーク
TTITLE1=EK (INOSIS the air remix)
TTITLE2=ふたたびトーク
TTITLE3=水蛍
TTITLE4=Eccentric War
TTITLE5=ENDING トーク
EXTD=YEAR: 2006
EXTT0=
EXTT1=
EXTT2=
EXTT3=
EXTT4=
EXTT5=
PLAYORDER=
